<svg xmlns="http://www.w3.org/2000/svg" width="1220.0mm" height="800.0mm" viewBox="0 0 1220.0 800.0">
  <defs>
    <marker id="arr" markerWidth="8" markerHeight="6" refX="8" refY="3" orient="auto">
      <path d="M0,0 L8,3 L0,6" fill="#2266cc"/>
    </marker>
    <marker id="arr-rev" markerWidth="8" markerHeight="6" refX="0" refY="3" orient="auto">
      <path d="M8,0 L0,3 L8,6" fill="#2266cc"/>
    </marker>
  </defs>
  <rect x="0" y="0" width="1220.0" height="800.0" fill="white" stroke="black" stroke-width="2"/>
  <rect x="100.0" y="100.0" width="1020.0" height="600.0" fill="none" stroke="#ccc" stroke-width="0.5" stroke-dasharray="5,5"/>
  <polyline points="200.0,150.0 1020.0,150.0 1020.0,150.0 1027.8,150.6 1035.5,152.4 1042.7,155.4 1049.4,159.5 1055.4,164.6 1060.5,170.6 1064.6,177.3 1067.6,184.5 1069.4,192.2 1070.0,200.0 1069.4,207.8 1067.6,215.5 1064.6,222.7 1060.5,229.4 1055.4,235.4 1049.4,240.5 1042.7,244.6 1035.5,247.6 1027.8,249.4 1020.0,250.0 1020.0,250.0 200.0,250.0 200.0,350.0 192.2,349.4 184.5,347.6 177.3,344.6 170.6,340.5 164.6,335.4 159.5,329.4 155.4,322.7 152.4,315.5 150.6,307.8 150.0,300.0 150.6,292.2 152.4,284.5 155.4,277.3 159.5,270.6 164.6,264.6 170.6,259.5 177.3,255.4 184.5,252.4 192.2,250.6 200.0,250.0 200.0,350.0 1020.0,350.0 1020.0,350.0 1027.8,350.6 1035.5,352.4 1042.7,355.4 1049.4,359.5 1055.4,364.6 1060.5,370.6 1064.6,377.3 1067.6,384.5 1069.4,392.2 1070.0,400.0 1069.4,407.8 1067.6,415.5 1064.6,422.7 1060.5,429.4 1055.4,435.4 1049.4,440.5 1042.7,444.6 1035.5,447.6 1027.8,449.4 1020.0,450.0 1020.0,450.0 200.0,450.0 200.0,550.0 192.2,549.4 184.5,547.6 177.3,544.6 170.6,540.5 164.6,535.4 159.5,529.4 155.4,522.7 152.4,515.5 150.6,507.8 150.0,500.0 150.6,492.2 152.4,484.5 155.4,477.3 159.5,470.6 164.6,464.6 170.6,459.5 177.3,455.4 184.5,452.4 192.2,450.6 200.0,450.0 200.0,550.0 1020.0,550.0 1020.0,550.0 1027.8,550.6 1035.5,552.4 1042.7,555.4 1049.4,559.5 1055.4,564.6 1060.5,570.6 1064.6,577.3 1067.6,584.5 1069.4,592.2 1070.0,600.0 1069.4,607.8 1067.6,615.5 1064.6,622.7 1060.5,629.4 1055.4,635.4 1049.4,640.5 1042.7,644.6 1035.5,647.6 1027.8,649.4 1020.0,650.0 1020.0,650.0 200.0,650.0 100.0,650.0 100.0,100.0 200.0,100.0 200.0,150.0" fill="none" stroke="black" stroke-width="25.0" stroke-linecap="round" stroke-linejoin="round"/>
  <line x1="1020.0" y1="130.0" x2="1020.0" y2="170.0" stroke="red" stroke-width="25.0" stroke-linecap="round"/>
  <line x1="1020.0" y1="230.0" x2="1020.0" y2="270.0" stroke="red" stroke-width="25.0" stroke-linecap="round"/>
  <line x1="200.0" y1="230.0" x2="200.0" y2="270.0" stroke="red" stroke-width="25.0" stroke-linecap="round"/>
  <line x1="200.0" y1="330.0" x2="200.0" y2="370.0" stroke="red" stroke-width="25.0" stroke-linecap="round"/>
  <line x1="1020.0" y1="330.0" x2="1020.0" y2="370.0" stroke="red" stroke-width="25.0" stroke-linecap="round"/>
  <line x1="1020.0" y1="430.0" x2="1020.0" y2="470.0" stroke="red" stroke-width="25.0" stroke-linecap="round"/>
  <line x1="200.0" y1="430.0" x2="200.0" y2="470.0" stroke="red" stroke-width="25.0" stroke-linecap="round"/>
  <line x1="200.0" y1="530.0" x2="200.0" y2="570.0" stroke="red" stroke-width="25.0" stroke-linecap="round"/>
  <line x1="1020.0" y1="530.0" x2="1020.0" y2="570.0" stroke="red" stroke-width="25.0" stroke-linecap="round"/>
  <line x1="1020.0" y1="630.0" x2="1020.0" y2="670.0" stroke="red" stroke-width="25.0" stroke-linecap="round"/>
  <line x1="170.0" y1="150.0" x2="170.0" y2="250.0" stroke="#2266cc" stroke-width="1.5" marker-start="url(#arr-rev)" marker-end="url(#arr)"/>
  <line x1="160.0" y1="150.0" x2="180.0" y2="150.0" stroke="#2266cc" stroke-width="1"/>
  <line x1="160.0" y1="250.0" x2="180.0" y2="250.0" stroke="#2266cc" stroke-width="1"/>
  <text x="156.0" y="200.0" text-anchor="middle" font-size="18" fill="#2266cc" transform="rotate(-90, 156.0, 200.0)">100 mm</text>
  <line x1="1020.0" y1="200.0" x2="1070.0" y2="200.0" stroke="#2266cc" stroke-width="1.5" marker-end="url(#arr)"/>
  <circle cx="1020.0" cy="200.0" r="3" fill="#2266cc"/>
  <text x="1045.0" y="192.0" text-anchor="middle" font-size="18" fill="#2266cc">r=50 mm</text>
  <circle cx="200.0" cy="150.0" r="10" fill="green" opacity="0.7"/>
  <circle cx="200.0" cy="150.0" r="10" fill="red" opacity="0.7"/>
  <text x="610.0" y="790.0" text-anchor="middle" font-size="30" fill="#666">122 cm</text>
  <text x="15" y="400.0" text-anchor="middle" font-size="30" fill="#666" transform="rotate(-90, 15, 400.0)">80 cm</text>
</svg>